<?xml version="1.0" encoding="utf-8"?>
<!-- Generator: Adobe Illustrator 24.0.0, SVG Export Plug-In . SVG Version: 6.00 Build 0)  -->
<svg version="1.1" id="Livello_1" xmlns="http://www.w3.org/2000/svg" xmlns:xlink="http://www.w3.org/1999/xlink" x="0px" y="0px"
	 viewBox="0 0 1115.2 124.4" style="enable-background:new 0 0 1115.2 124.4;" xml:space="preserve">
<style type="text/css">
	.st0{fill:#FFFFFF;}
</style>
<title>social-icon</title>
<g id="Graphic_Elements">
	<path class="st0" d="M46.9,122.6c56.3,0,87.1-46.7,87.1-87.1c0-1.3,0-2.7-0.1-4c6-4.3,11.2-9.7,15.3-15.8
		c-5.6,2.5-11.5,4.1-17.6,4.8c6.4-3.8,11.2-9.8,13.5-16.9c-6,3.6-12.6,6.1-19.4,7.4c-11.6-12.3-31-12.9-43.3-1.4
		c-6.2,5.8-9.7,13.9-9.7,22.3c0,2.4,0.3,4.7,0.8,7C48.9,37.8,25.9,26.1,10.4,7c-8.1,14-4,31.9,9.5,40.9C15,47.7,10.2,46.4,6,44
		c0,0.1,0,0.3,0,0.4c0,14.6,10.3,27.1,24.6,30c-4.5,1.2-9.2,1.4-13.8,0.5c4,12.5,15.5,21,28.6,21.3c-10.8,8.5-24.2,13.1-38,13.1
		c-2.4,0-4.9-0.1-7.3-0.4C14,117.9,30.3,122.6,46.9,122.6"/>
	<path class="st0" d="M1112,27.1c-1.7-6.3-6.6-11.2-12.9-12.9c-11.4-3.1-57-3.1-57-3.1s-45.6,0-57,3.1c-6.2,1.7-11.1,6.6-12.8,12.9
		c-3,11.4-3,35.1-3,35.1s0,23.7,3,35.1c1.7,6.3,6.6,11.2,12.9,12.9c11.4,3.1,57,3.1,57,3.1s45.6,0,57-3.1
		c6.3-1.7,11.2-6.6,12.9-12.9c3.1-11.4,3.1-35.1,3.1-35.1S1115.1,38.5,1112,27.1z M1027.6,84.1V40.4l37.9,21.9L1027.6,84.1z"/>
	<path class="st0" d="M383.8,11.2c16.6,0,18.6,0.1,25.1,0.4c3.9,0.1,7.9,0.8,11.6,2.1c2.7,1,5.1,2.6,7.1,4.6c2.1,2,3.7,4.5,4.7,7.2
		c1.4,3.7,2.1,7.6,2.1,11.5c0.3,6.6,0.4,8.5,0.4,25.1s-0.1,18.6-0.4,25.1c0,3.9-0.8,7.9-2.1,11.6c-2.1,5.4-6.4,9.7-11.8,11.8
		c-3.7,1.4-7.6,2.1-11.6,2.1c-6.6,0.3-8.5,0.4-25.1,0.4s-18.6-0.1-25.1-0.4c-3.9,0-7.9-0.8-11.5-2.1c-5.4-2.1-9.7-6.4-11.8-11.8
		c-1.4-3.7-2.1-7.6-2.1-11.6c-0.3-6.6-0.4-8.5-0.4-25.1s0.1-18.6,0.4-25.2c0-3.9,0.8-7.9,2.1-11.5c1-2.7,2.6-5.1,4.6-7.2
		c2-2.1,4.5-3.7,7.2-4.6c3.7-1.4,7.6-2.1,11.5-2.1C365.2,11.3,367.2,11.2,383.8,11.2 M383.8,0c-16.9,0-19,0.1-25.7,0.4
		c-5.2,0.1-10.3,1.1-15.1,2.9c-4.1,1.6-7.9,4-11,7.2c-3.2,3.1-5.6,6.9-7.2,11c-1.8,4.8-2.8,9.9-2.9,15.1c-0.3,6.6-0.4,8.8-0.4,25.7
		s0.1,19,0.4,25.7c0.1,5.2,1.1,10.3,2.9,15.2c3.2,8.4,9.8,15,18.2,18.2c4.8,1.8,9.9,2.8,15.1,2.9c6.6,0.3,8.8,0.4,25.7,0.4
		s19-0.1,25.7-0.4c5.2-0.1,10.3-1.1,15.1-2.9c8.4-3.2,15-9.8,18.2-18.2c1.8-4.8,2.8-9.9,2.9-15.1c0.3-6.6,0.4-8.8,0.4-25.7
		s-0.1-19-0.4-25.7c-0.1-5.2-1.1-10.3-2.9-15.1c-1.6-4.1-4-7.9-7.2-11c-3.1-3.2-6.9-5.6-11-7.2c-4.8-1.8-9.9-2.8-15.1-2.9
		C402.8,0.1,400.7,0,383.8,0L383.8,0z"/>
	<path class="st0" d="M383.8,30.3c-17.7,0-32,14.3-32,32s14.3,32,32,32c17.7,0,32-14.3,32-32S401.5,30.3,383.8,30.3z M383.8,83
		c-11.5,0-20.8-9.3-20.8-20.7c0-11.5,9.3-20.8,20.7-20.8s20.8,9.3,20.8,20.7c0,0,0,0,0,0C404.6,73.7,395.3,83,383.8,83
		C383.8,83,383.8,83,383.8,83L383.8,83z"/>
	<circle class="st0" cx="417" cy="29" r="7.5"/>
	<path class="st0" d="M701,0c-34.4,0-62.2,27.8-62.3,62.2c0,30.6,22.3,56.7,52.5,61.5V80.2h-15.8v-18h15.8V48.5
		c0-15.6,9.3-24.2,23.5-24.2c4.7,0.1,9.3,0.5,13.9,1.2v15.3h-7.8c-7.7,0-10.1,4.8-10.1,9.7v11.7h17.3l-2.8,18h-14.5v43.5
		c33.9-5.4,57.1-37.2,51.8-71.2C757.7,22.3,731.6,0,701,0z"/>
</g>
</svg>
